# xmcd
#
# Track frame offsets:
#	150
#	16542
#	31545
#	47771
#	67100
#	86381
#	99694
#	116281
#	130583
#	146796
#	162460
#	178852
#	193855
#	210081
#	229410
#	248691
#	262004
#	278591
#	292893
#	309106
#
# Disc length: 4328 seconds
#
# Revision: 3
# Processed by: cddbd v1.5.2PL0 Copyright (c) Steve Scherf et al.
# Submitted via: audiograbber 1.83.01
#
DISCID=0b10e614
DTITLE=THC0710 - Top Hits Country (THC) 
DYEAR=2007
DGENRE=Karaoke
TTITLE0=Keith, Toby  - Love Me If You Can (vocals)
TTITLE1=Brice, Lee  - She Ain't Right (Vocals)
TTITLE2=Evans, Sara  - As If (Vocals)
TTITLE3=Paisley, Brad  - Online (Vocals)
TTITLE4=Chesney, Kenny  - Flip Flop Summer (Vocals)
TTITLE5=Peck, Danielle  - Bad For Me (Vocals)
TTITLE6=Shelton, Blake  - The More I Drink (Vocals)
TTITLE7=Messina, JoDee  - Biker Chick (Vocals)
TTITLE8=Johns, Sarah - The One In The Middle (Vocals)
TTITLE9=Turner, Josh  - Firecracker (Vocals)
TTITLE10=Toby Keith - Love Me If You Can (THC) 
TTITLE11=Lee Brice - She Ain't Right (THC) 
TTITLE12=Sara Evans - As If (THC) 
TTITLE13=Brad Paisley - Online (THC) 
TTITLE14=Kenny Chesney - Flip Flop Summer (THC) 
TTITLE15=Danielle Peck - Bad For Me (THC) 
TTITLE16=Blake Shelton - The More I Drink  (THC) 
TTITLE17=JoDee Messina - Biker Chick (THC) 
TTITLE18=Sarah Johns - The One In The Middle (THC) 
TTITLE19=Josh Turner - Firecracker (THC) 
EXTD=
EXTT0=
EXTT1=
EXTT2=
EXTT3=
EXTT4=
EXTT5=
EXTT6=
EXTT7=
EXTT8=
EXTT9=
EXTT10=
EXTT11=
EXTT12=
EXTT13=
EXTT14=
EXTT15=
EXTT16=
EXTT17=
EXTT18=
EXTT19=
PLAYORDER=
